<?xml version="1.0" encoding="UTF-8"?><svg id="Layer_1" xmlns="http://www.w3.org/2000/svg" viewBox="0 0 3781.63 2215.86"><defs><style>.cls-1{fill:#486daf;}.cls-2{fill:#231f20;}.cls-3{fill:#fbeba9;}.cls-4{fill:#283e60;}.cls-5{fill:#77499d;fill-rule:evenodd;}</style></defs><path class="cls-3" d="M3682.51,2116.76c0,110.8-3583.39,110.8-3583.39,0-110.83,0-110.83-2017.66,0-2017.66,0-110.8,3583.39-110.8,3583.39,0,110.83,0,110.83,2017.66,0,2017.66Z"/><path class="cls-2" d="M1890.81,16c895.85,0,1791.69,27.7,1791.69,83.1,110.83,0,110.83,2017.66,0,2017.66,0,55.4-895.85,83.1-1791.69,83.1s-1791.69-27.7-1791.69-83.1c-110.83,0-110.83-2017.66,0-2017.66,0-55.4,895.85-83.1,1791.69-83.1M1890.81,0c-469.59,0-907.28,7.38-1232.45,20.79-175.13,7.22-312.05,15.98-406.96,26.04-50.48,5.35-89.39,11.14-115.64,17.2-14.54,3.36-25.43,6.82-33.27,10.57-6.65,3.19-11.61,6.93-14.84,11.2-13.27,6.6-20.18,23.46-22.81,29.88-6.42,15.65-12.24,37.61-17.8,67.15-10.14,53.84-18.96,131.34-26.21,230.36C7.4,596.54,0,843.27,0,1107.93s7.4,511.4,20.82,694.74c7.25,99.01,16.07,176.52,26.21,230.36,5.56,29.53,11.39,51.5,17.8,67.15,2.63,6.42,9.55,23.27,22.81,29.88,3.23,4.27,8.19,8.02,14.84,11.2,7.85,3.76,18.73,7.21,33.27,10.57,26.26,6.06,65.17,11.85,115.64,17.2,94.91,10.06,231.83,18.82,406.96,26.04,325.17,13.41,762.86,20.79,1232.45,20.79s907.28-7.38,1232.45-20.79c175.13-7.22,312.05-15.98,406.96-26.04,50.48-5.35,89.38-11.14,115.64-17.2,14.54-3.36,25.43-6.82,33.27-10.57,6.65-3.19,11.61-6.93,14.84-11.2,13.27-6.6,20.18-23.46,22.81-29.88,6.42-15.65,12.24-37.61,17.8-67.15,10.14-53.84,18.96-131.34,26.21-230.36,13.43-183.35,20.82-430.08,20.82-694.74s-7.4-511.39-20.82-694.74c-7.25-99.01-16.07-176.52-26.21-230.36-5.56-29.53-11.39-51.5-17.8-67.15-2.63-6.42-9.54-23.27-22.81-29.88-3.23-4.27-8.19-8.02-14.84-11.2-7.85-3.76-18.73-7.21-33.27-10.57-26.26-6.06-65.17-11.85-115.64-17.2-94.91-10.06-231.83-18.82-406.96-26.04C2798.1,7.38,2360.4,0,1890.81,0h0Z"/><path class="cls-4" d="M2151.07,834.98c-28.01-119.03-87.91-440.35-115.14-560.16h-234.96v7.78c11.67,0,35.01,14,34.23,54.46,0,35.01-81.69,430.23-98.03,497.92-7,28.79-29.56,54.46-42.01,54.46v7.78h203.84v-7.78c-10.89,0-28.01-9.34-21.01-54.46,6.22-38.9,13.23-77.02,18.67-115.92l92.58-16.34c7,43.57,14,87.91,21.01,132.26,7,45.12-10.11,54.46-21.01,54.46v7.78h203.84v-7.78c-12.45,0-35.79-26.45-42.01-54.46ZM1913.78,610.92c10.89-67.69,21.01-135.37,31.12-203.06,9.34,64.57,18.67,128.37,28.01,192.17l-59.13,10.89Z"/><path class="cls-4" d="M2239.76,282.6c12.45,0,35.01,15.56,35.01,54.46v497.92c0,38.9-22.56,54.46-35.01,54.46v7.78h202.28v-7.78c-12.45,0-35.01-15.56-35.01-54.46v-497.92c0-38.9,22.56-54.46,35.01-54.46v-7.78h-202.28v7.78Z"/><path class="cls-4" d="M2814.7,776.63h-143.15v-439.57c0-38.9,22.56-54.46,35.01-54.46v-7.78h-202.28v7.78c12.45,0,35.01,15.56,35.01,54.46v497.92c0,38.9-22.56,54.46-35.01,54.46v7.78h372.66v-155.6h-7.78c0,12.45-15.56,35.01-54.46,35.01Z"/><path class="cls-4" d="M3379.53,834.98c-28.01-119.03-87.91-440.35-115.14-560.16h-234.96v7.78c11.67,0,35.01,14,34.23,54.46,0,35.01-81.69,430.23-98.03,497.92-7,28.79-29.56,54.46-42.01,54.46v7.78h203.84v-7.78c-10.89,0-28.01-9.34-21.01-54.46,6.22-38.9,13.23-77.02,18.67-115.92l92.58-16.34c7,43.57,14,87.91,21.01,132.26,7,45.12-10.11,54.46-21.01,54.46v7.78h203.84v-7.78c-12.45,0-35.79-26.45-42.01-54.46ZM3142.24,610.92c10.89-67.69,21.01-135.37,31.12-203.06,9.34,64.57,18.67,128.37,28.01,192.17l-59.13,10.89Z"/><path class="cls-4" d="M1440.63,281.6c12.44,0,34.98,15.55,34.98,54.42v188.91l-116.61,20.99v-209.9c0-38.87,22.54-54.42,34.98-54.42v-7.77h-202.12v7.77c12.44,0,34.98,15.55,34.98,54.42v497.53c0,38.87-22.54,54.42-34.98,54.42v7.77h202.12v-7.77c-12.44,0-34.98-15.55-34.98-54.42v-182.69l116.61-20.99v203.68c0,38.87-22.54,54.42-34.98,54.42v7.77h202.12v-7.77c-12.44,0-34.98-15.55-34.98-54.42v-497.53c0-38.87,22.54-54.42,34.98-54.42v-7.77h-202.12v7.77Z"/><path class="cls-1" d="M2129.07,813.98c-28.01-119.03-87.91-440.35-115.14-560.16h-234.96v7.78c11.67,0,35.01,14,34.23,54.46,0,35.01-81.69,430.23-98.03,497.92-7,28.79-29.56,54.46-42.01,54.46v7.78h203.84v-7.78c-10.89,0-28.01-9.34-21.01-54.46,6.22-38.9,13.23-77.02,18.67-115.92l92.58-16.34c7,43.57,14,87.91,21.01,132.26,7,45.12-10.11,54.46-21.01,54.46v7.78h203.84v-7.78c-12.45,0-35.79-26.45-42.01-54.46ZM1891.78,589.92c10.89-67.69,21.01-135.37,31.12-203.06,9.34,64.57,18.67,128.37,28.01,192.17l-59.13,10.89Z"/><path class="cls-2" d="M2179.08,884.22h-219.84v-23.78h8c2.36,0,5.79-.72,8.73-4.15,3.4-3.97,8.49-14.58,4.37-41.09-6.47-40.96-13.13-83.17-19.71-124.2l-78.87,13.92c-3.38,23.48-7.33,46.97-11.16,69.74-2.23,13.27-4.54,26.98-6.71,40.57-4.11,26.47.98,37.08,4.38,41.05,2.94,3.43,6.37,4.15,8.73,4.15h8v23.78h-219.84v-23.78h8c2.31,0,8.92-3.65,16.82-13.46,8.13-10.09,14.48-22.81,17.42-34.9,17.07-70.74,97.8-462.44,97.8-496.03v-.15c.41-21.45-6.45-33.03-12.28-38.98-5.68-5.79-11.44-7.33-13.96-7.33h-8v-23.78h249.34l1.42,6.23c12.82,56.43,32.53,155.71,53.4,260.81,23.07,116.19,46.92,236.35,61.73,299.29l.02.1c5.96,26.82,27.58,48.2,34.2,48.2h8v23.78ZM1986.73,868.22h165.93c-13.63-11.11-26.81-31.91-31.39-52.45-14.88-63.23-38.75-183.49-61.84-299.79-20.09-101.22-39.12-197.03-51.9-254.15h-207.52c1.5,1.19,2.96,2.5,4.34,3.91,7.97,8.12,17.35,23.46,16.85,50.42-.12,38-83.71,439.46-98.25,499.72-5.06,20.82-18.11,41.36-31.5,52.36h166.06c-.48-.48-.94-.99-1.39-1.51-9.22-10.76-11.92-28.91-8.03-53.95,2.19-13.69,4.5-27.44,6.74-40.73,4.13-24.53,8.39-49.9,11.92-75.07l.81-5.76,106.31-18.76,1.29,8.02c7,43.55,14.12,88.62,21,132.2l.02.1c3.89,25.04,1.18,43.2-8.03,53.95-.45.52-.91,1.03-1.39,1.51ZM1882.08,599.84l1.8-11.19c10.9-67.73,21.17-136.48,31.11-202.97l8.04-53.83,7.79,53.86c9.34,64.61,18.83,129.45,28.01,192.15l1.12,7.63-77.86,14.34ZM1922.78,441.74c-6.88,45.78-13.95,92.2-21.3,138.26l40.4-7.44c-6.28-42.91-12.69-86.76-19.1-130.82Z"/><path class="cls-1" d="M2217.76,261.6c12.45,0,35.01,15.56,35.01,54.46v497.92c0,38.9-22.56,54.46-35.01,54.46v7.78h202.28v-7.78c-12.45,0-35.01-15.56-35.01-54.46v-497.92c0-38.9,22.56-54.46,35.01-54.46v-7.78h-202.28v7.78Z"/><path class="cls-2" d="M2428.04,884.22h-218.28v-23.78h8c7.21,0,27.01-11.01,27.01-46.46v-497.92c0-35.45-19.8-46.46-27.01-46.46h-8v-23.78h218.28v23.78h-8c-7.21,0-27.01,11.01-27.01,46.46v497.92c0,35.45,19.8,46.46,27.01,46.46h8v23.78ZM2238.61,868.22h160.58c-11.92-9.49-22.16-27.32-22.16-54.24v-497.92c0-26.92,10.24-44.76,22.16-54.24h-160.58c11.92,9.48,22.16,27.32,22.16,54.24v497.92c0,26.92-10.24,44.75-22.16,54.24Z"/><path class="cls-1" d="M2792.7,755.63h-143.15v-439.57c0-38.9,22.56-54.46,35.01-54.46v-7.78h-202.28v7.78c12.45,0,35.01,15.56,35.01,54.46v497.92c0,38.9-22.56,54.46-35.01,54.46v7.78h372.66v-155.6h-7.78c0,12.45-15.56,35.01-54.46,35.01Z"/><path class="cls-2" d="M2862.94,884.22h-388.66v-23.78h8c7.21,0,27.01-11.01,27.01-46.46v-497.92c0-35.45-19.8-46.46-27.01-46.46h-8v-23.78h218.28v23.78h-8c-7.21,0-27.01,11.01-27.01,46.46v431.57h135.15c35.45,0,46.46-19.8,46.46-27.01v-8h23.78v171.6ZM2503.13,868.22h343.81v-126.75c-9.49,11.92-27.32,22.16-54.24,22.16h-151.15v-447.57c0-26.92,10.24-44.76,22.16-54.24h-160.58c11.92,9.48,22.16,27.32,22.16,54.24v497.92c0,26.92-10.24,44.75-22.16,54.24Z"/><path class="cls-1" d="M3357.53,813.98c-28.01-119.03-87.91-440.35-115.14-560.16h-234.96v7.78c11.67,0,35.01,14,34.23,54.46,0,35.01-81.69,430.23-98.03,497.92-7,28.79-29.56,54.46-42.01,54.46v7.78h203.84v-7.78c-10.89,0-28.01-9.34-21.01-54.46,6.22-38.9,13.23-77.02,18.67-115.92l92.58-16.34c7,43.57,14,87.91,21.01,132.26,7,45.12-10.11,54.46-21.01,54.46v7.78h203.84v-7.78c-12.45,0-35.79-26.45-42.01-54.46ZM3120.24,589.92c10.89-67.69,21.01-135.37,31.12-203.06,9.34,64.57,18.67,128.37,28.01,192.17l-59.13,10.89Z"/><path class="cls-2" d="M3407.54,884.22h-219.84v-23.78h8c2.36,0,5.79-.72,8.73-4.15,3.4-3.97,8.49-14.58,4.37-41.09-6.47-40.96-13.13-83.17-19.71-124.2l-78.87,13.92c-3.38,23.48-7.34,46.99-11.17,69.77-2.23,13.26-4.54,26.97-6.71,40.55-4.11,26.47.98,37.08,4.38,41.05,2.94,3.43,6.37,4.15,8.73,4.15h8v23.78h-219.84v-23.78h8c2.31,0,8.92-3.65,16.82-13.46,8.13-10.09,14.48-22.81,17.42-34.9,17.07-70.73,97.8-462.43,97.8-496.03v-.15c.41-21.45-6.45-33.03-12.28-38.98-5.68-5.79-11.44-7.33-13.96-7.33h-8v-23.78h249.34l1.42,6.23c12.83,56.43,32.54,155.72,53.41,260.83,23.07,116.19,46.92,236.33,61.73,299.27l.02.1c5.96,26.82,27.58,48.2,34.2,48.2h8v23.78ZM3215.19,868.22h165.93c-13.63-11.11-26.81-31.91-31.39-52.45-14.87-63.22-38.75-183.48-61.83-299.77-20.1-101.23-39.12-197.05-51.91-254.18h-207.52c1.5,1.19,2.96,2.5,4.34,3.91,7.97,8.12,17.35,23.46,16.85,50.42-.12,38.02-83.71,439.46-98.25,499.72-5.06,20.82-18.1,41.36-31.5,52.36h166.06c-.48-.49-.94-.99-1.39-1.51-9.22-10.76-11.92-28.91-8.03-53.95,2.19-13.68,4.5-27.42,6.74-40.71,4.13-24.54,8.39-49.91,11.92-75.09l.81-5.76,106.31-18.76,1.29,8.02c7,43.55,14.12,88.62,21,132.2l.02.1c3.89,25.04,1.18,43.2-8.03,53.95-.45.52-.91,1.03-1.39,1.51ZM3110.54,599.84l1.8-11.19c10.91-67.82,21.18-136.52,31.11-202.97l8.04-53.83,7.79,53.86c9.34,64.61,18.83,129.45,28.01,192.15l1.12,7.63-77.86,14.34ZM3151.23,441.74c-6.87,45.75-13.94,92.16-21.3,138.26l40.4-7.44c-6.28-42.91-12.69-86.76-19.1-130.82Z"/><path class="cls-1" d="M1420.63,261.6c12.44,0,34.98,15.55,34.98,54.42v188.91l-116.61,20.99v-209.9c0-38.87,22.54-54.42,34.98-54.42v-7.77h-202.12v7.77c12.44,0,34.98,15.55,34.98,54.42v497.53c0,38.87-22.54,54.42-34.98,54.42v7.77h202.12v-7.77c-12.44,0-34.98-15.55-34.98-54.42v-182.69l116.61-20.99v203.68c0,38.87-22.54,54.42-34.98,54.42v7.77h202.12v-7.77c-12.44,0-34.98-15.55-34.98-54.42v-497.53c0-38.87,22.54-54.42,34.98-54.42v-7.77h-202.12v7.77Z"/><path class="cls-2" d="M1630.75,883.74h-218.12v-23.77h8c7.2,0,26.98-11,26.98-46.42v-194.11l-100.61,18.11v176c0,35.42,19.78,46.42,26.98,46.42h8v23.77h-218.12v-23.77h8c7.2,0,26.98-11,26.98-46.42v-497.53c0-35.42-19.78-46.42-26.98-46.42h-8v-23.77h218.12v23.77h-8c-7.2,0-26.98,11-26.98,46.42v200.33l100.61-18.11v-182.22c0-35.42-19.78-46.42-26.98-46.42h-8v-23.77h218.12v23.77h-8c-7.2,0-26.98,11-26.98,46.42v497.53c0,35.42,19.78,46.42,26.98,46.42h8v23.77ZM1441.48,867.74h160.42c-11.9-9.48-22.13-27.3-22.13-54.19v-497.53c0-26.89,10.23-44.71,22.13-54.19h-160.42c11.9,9.48,22.13,27.3,22.13,54.19v195.59l-132.61,23.87v-219.46c0-26.89,10.23-44.71,22.13-54.19h-160.42c11.9,9.48,22.13,27.3,22.13,54.19v497.53c0,26.89-10.23,44.71-22.13,54.19h160.42c-11.9-9.48-22.13-27.3-22.13-54.19v-189.38l132.61-23.87v213.24c0,26.89-10.23,44.71-22.13,54.19Z"/><path class="cls-4" d="M824.88,1205.69c0,105.28-53.62,209.59-155,246.63l-186.19-88.71,3.9-8.77c98.46,24.37,173.52-61.41,173.52-155,0-74.09-58.49-114.05-124.78-114.05-83.83,0-179.37,65.31-179.37,208.61,0,129.65,82.86,265.15,314.87,265.15,155.97,0,308.04-85.78,308.04-286.6,0-325.59-545.9-414.3-545.9-749.64,0-207.64,175.47-313.89,345.09-313.89,160.85,0,317.79,95.53,317.79,284.65,0,105.28-53.62,209.59-155,246.63l-205.69-97.48,3.9-8.77c98.46,24.37,172.54-61.41,172.54-131.6,0-80.91-63.36-117.95-131.6-117.95-78.96,0-163.77,49.72-163.77,143.3,0,208.61,545.9,322.67,545.9,742.82,0,322.67-238.83,464.02-480.59,464.02-356.79,0-503.98-215.44-503.98-425.02,0-267.1,185.22-397.73,356.79-397.73,150.12,0,289.52,98.46,289.52,293.42Z"/><path class="cls-4" d="M2756.08,1157.55l-91.75,103.54-5.24-4.59c8.52-14.42,12.45-29.49,12.45-43.91,0-61.6-49.15-85.85-93.71-85.85-79.95,0-188.08,87.82-188.08,293.59,0,193.98,120.58,455.46,343.4,455.46,46.53,0,83.23-20.32,92.4-67.5h7.21l-.66,138.28c-33.42,32.77-67.5,43.25-104.85,43.25-312.59,0-465.29-303.42-465.29-579.32s161.87-403.03,304.73-403.03c89.13,0,182.18,53.08,189.39,150.07Z"/><path class="cls-4" d="M3156.46,1279.75c0,127.13-24.9,267.38-173.66,267.38s-173.66-140.9-173.66-268.03,25.56-269.34,173.66-269.34,173.66,142.21,173.66,270ZM2982.79,1468.49c50.46,0,55.7-127.79,55.7-188.08s-3.93-192.01-55.7-192.01-55.7,133.03-55.7,192.01,5.24,188.08,55.7,188.08Z"/><path class="cls-4" d="M3349.78,1212.25v275.9c0,32.77,19,45.87,29.49,45.87v6.55h-170.39v-6.55c10.49,0,29.49-13.11,29.49-45.87v-419.41c0-32.77-19-45.87-29.49-45.87v-6.55h141.55l122.55,328.32v-275.9c0-32.77-19-45.87-29.49-45.87v-6.55h170.39v6.55c-10.49,0-29.49,13.11-29.49,45.87v419.41c0,32.77,19,45.87,29.49,45.87v6.55h-141.55l-122.55-328.32Z"/><path class="cls-4" d="M2997.84,1602.07c-24.8,5.46-47.61,31.74-47.61,53.56,0,27.27,25.29,36.2,43.14,35.21l-11.9,67.94c-54.55,0-81.33-36.2-81.33-74.39,0-42.65,33.23-87.28,97.69-87.28v4.96Z"/><path class="cls-4" d="M3161.98,1688.36c-37.69,0-97.69,55.05-77.36,95.21l-3.97,2.48-50.58-85.3c21.82-53.06,70.92-93.73,133.9-93.73s112.57,45.13,112.57,108.6-93.23,178.03-123.48,216.22h79.84c24.8,0,34.71-14.38,34.71-22.32h4.96v99.18h-227.62v-65.46c23.31-31.24,147.29-183.49,147.29-232.09,0-14.38-17.36-22.81-30.25-22.81Z"/><path class="cls-4" d="M3454.08,1750.84c67.44,0,114.06,40.66,114.06,115.05s-48.1,145.8-130.92,145.8-121-66.45-121-145.8c0-97.69,74.39-259.36,189.44-259.36,8.43,0,17.36.99,26.28,2.98l-17.85,68.93c-2.98-.5-5.95-.99-8.43-.99-34.22,0-60.5,49.59-71.91,75.38,4.96-1.49,14.88-1.98,20.33-1.98ZM3440.69,1828.7c-24.8,0-40.17,26.28-40.17,52.07,0,33.23,18.84,49.1,38.68,49.1,21.82,0,45.62-19.84,45.62-56.53,0-26.28-17.36-44.63-44.14-44.63Z"/><path class="cls-1" d="M802.88,1184.69c0,105.28-53.62,209.59-155,246.63l-186.19-88.71,3.9-8.77c98.46,24.37,173.52-61.41,173.52-155,0-74.09-58.49-114.05-124.78-114.05-83.83,0-179.37,65.31-179.37,208.61,0,129.65,82.86,265.15,314.87,265.15,155.97,0,308.04-85.78,308.04-286.6,0-325.59-545.9-414.3-545.9-749.64,0-207.64,175.47-313.89,345.09-313.89,160.85,0,317.79,95.53,317.79,284.65,0,105.28-53.62,209.59-155,246.63l-205.69-97.48,3.9-8.77c98.46,24.37,172.54-61.41,172.54-131.6,0-80.91-63.36-117.95-131.6-117.95-78.96,0-163.77,49.72-163.77,143.3,0,208.61,545.9,322.67,545.9,742.82,0,322.67-238.83,464.02-480.59,464.02-356.79,0-503.98-215.44-503.98-425.02,0-267.1,185.22-397.73,356.79-397.73,150.12,0,289.52,98.46,289.52,293.42Z"/><path class="cls-2" d="M637.05,1722.39c-146.41,0-269.71-44.3-357.72-128.79-41.12-39.48-73.44-86.54-96.05-139.87-21.47-50.63-33.3-104.64-35.18-160.51-1.71-50.81,4.94-100.55,19.76-147.83,15.17-48.41,38.22-91.97,68.5-129.46,31.95-39.55,70.91-70.96,115.81-93.38,48.09-24,102.22-37.22,160.9-39.29h.28c79.71,0,153.03,26.88,206.45,75.7,59.58,54.43,91.07,132.49,91.07,225.73,0,54.61-14.42,108.95-40.6,152.99-28.53,48-69.91,82.98-119.65,101.15l-3.15,1.15-196.26-93.5,9.76-21.95,6.45,1.52c26.17,6.17,51.04,4.9,73.89-3.78,20.42-7.75,39.09-21.61,54-40.08,17.02-21.08,28.86-47.8,33.34-75.24,4.52-27.65,1.3-54.87-9.05-76.64-12.41-26.1-40.73-57.25-105.14-57.52-53.71,1.92-98.77,24.65-130.31,65.75-29.15,37.99-44.22,88.56-42.44,142.38,1.06,31.98,7.96,63.03,20.5,92.27,13.3,31,32.33,58.38,56.56,81.39,55.5,52.7,135.31,78.97,230.8,75.97h.25c81.04,0,154.72-23.51,207.48-66.21,28.99-23.46,51.57-52.48,67.1-86.23,16.9-36.73,25.47-79.17,25.47-126.16,0-37.73-7.35-73.06-22.47-108-13.55-31.32-33.1-61.68-59.77-92.81-50.01-58.38-118.41-110.9-184.56-161.69-68.04-52.24-138.4-106.26-190.76-167.8-28.43-33.41-49.33-66.22-63.91-100.28-16.44-38.42-24.43-77.34-24.43-119.01-1.23-96.71,36.25-179.13,108.4-238.35,32.13-26.38,69.86-47.05,112.14-61.44,40.8-13.89,83.76-21.26,127.69-21.92,86.13-1.29,166.18,23.55,225.43,69.96,67.24,52.66,103.62,129.54,105.21,222.33v.14c0,54.61-14.42,108.94-40.61,152.99-28.53,48-69.91,82.98-119.65,101.15l-3.15,1.15-215.77-102.26,9.79-22.04,6.51,1.61c39.12,9.68,78.09,1.38,109.71-23.37,32.11-25.13,52.87-64.52,52.91-100.37-.95-36.2-14.69-65.56-39.73-84.9-22.37-17.28-53.44-26.33-87.45-25.46-38.82.98-77.29,14.6-105.55,37.37-21.96,17.69-47.87,49.05-46.64,98.04v.2c0,82.24,92.46,151.7,199.53,232.13,76.97,57.83,164.22,123.37,231.2,204.78,77.5,94.19,115.17,194.25,115.17,305.9,0,78.47-14.06,149.76-41.79,211.89-25.66,57.49-62.9,107.03-110.69,147.24-86.48,72.77-205.79,112.86-335.98,112.89-7.94.25-15.82.38-23.63.38ZM513.5,899.26c-109.33,3.89-200.86,47.71-264.69,126.73-29.02,35.92-51.12,77.7-65.68,124.19-14.28,45.56-20.68,93.51-19.03,142.51,1.81,53.9,13.23,105.98,33.92,154.8,21.76,51.33,52.85,96.61,92.4,134.58,89.55,85.97,217.45,128.83,369.89,123.96h.26c126.46,0,242.17-38.76,325.8-109.13,45.93-38.65,81.72-86.26,106.39-141.52,26.81-60.06,40.4-129.15,40.4-205.37,0-107.79-36.48-204.53-111.52-295.73-65.77-79.94-152.2-144.87-228.46-202.16-110.45-82.98-205.85-154.64-205.91-244.82-.55-22.63,4.1-43.97,13.82-63.42,8.96-17.93,22.01-33.86,38.78-47.37,30.94-24.93,72.93-39.84,115.18-40.91,37.69-.95,72.36,9.27,97.63,28.79,29.01,22.4,44.9,56.04,45.95,97.26v.2c0,40.61-23.17,84.99-59.04,113.07-29.46,23.06-64.57,33.43-100.75,30.14l181.41,85.98c44.86-17.21,82.24-49.35,108.27-93.14,24.72-41.59,38.35-92.99,38.36-144.74-1.52-87.77-35.78-160.37-99.08-209.94-56.39-44.16-132.87-67.79-215.33-66.56-167.14,2.51-335.01,108.28-332.48,305.56v.1c0,39.48,7.57,76.36,23.14,112.77,13.93,32.56,34.01,64.03,61.38,96.2,51.26,60.25,120.93,113.74,188.32,165.48,66.8,51.29,135.87,104.32,186.97,163.97,27.73,32.37,48.11,64.06,62.31,96.87,16,36.99,23.79,74.4,23.79,114.36,0,49.31-9.06,94-26.93,132.84-16.57,36.01-40.65,66.95-71.57,91.98-55.57,44.97-132.78,69.75-217.42,69.77-5.03.16-10.03.23-14.98.24-93.21,0-171.53-27.72-227.22-80.59-25.82-24.51-46.09-53.68-60.25-86.69-13.33-31.08-20.66-64.07-21.79-98.05-1.91-57.51,14.33-111.73,45.73-152.65,34.57-45.06,83.88-69.96,142.59-72.01h.15s.15,0,.15,0c56.83.2,99.34,23.87,119.69,66.65,24.01,50.48,13.21,119.89-26.28,168.81-16.69,20.67-37.7,36.22-60.77,44.99-19.3,7.33-39.78,10.02-61.11,8.04l162.37,77.36c44.85-17.21,82.24-49.35,108.27-93.13,24.73-41.61,38.36-93.04,38.36-144.82,0-88.62-29.69-162.6-85.86-213.92-50.44-46.08-119.87-71.48-195.52-71.51Z"/><path class="cls-1" d="M2734.08,1136.55l-91.75,103.54-5.24-4.59c8.52-14.42,12.45-29.49,12.45-43.91,0-61.6-49.15-85.85-93.71-85.85-79.95,0-188.08,87.82-188.08,293.59,0,193.98,120.58,455.46,343.4,455.46,46.53,0,83.23-20.32,92.4-67.5h7.21l-.66,138.28c-33.42,32.77-67.5,43.25-104.85,43.25-312.59,0-465.29-303.42-465.29-579.32s161.87-403.03,304.73-403.03c89.13,0,182.18,53.08,189.39,150.07Z"/><path class="cls-2" d="M2686.32,1977.27c-69.6,0-134.83-18.1-194.19-53.91-58.93-35.56-110.31-87.32-152.71-153.85-57.49-90.2-94.71-203.23-104.8-318.28-10.18-116,8.1-225.4,51.47-308.05,54.33-103.53,143.65-160.48,258.31-164.71h.3c47.18,0,94.59,14.64,130.08,40.17,40.48,29.11,63.74,69.68,67.28,117.31l.25,3.37-99.26,112.02-16.22-14.2,3.38-5.72c7.42-12.56,11.34-26.33,11.34-39.84,0-57.22-45.79-77.68-85.22-77.85-32.64,4.12-61.69,15.61-86.34,34.18-23.28,17.52-42.72,41.36-57.79,70.84-28.29,55.32-40.53,130.57-34.48,211.87,7.8,104.78,44.27,209.14,100.04,286.34,29.92,41.41,64.23,73.59,101.98,95.66,40.81,23.85,84.96,35.33,131.22,34.16h.21s.01,0,.02,0c22.65,0,41.38-4.93,55.69-14.67,15.16-10.31,24.86-25.91,28.84-46.36l1.26-6.47h21.84l-.71,149.65-2.38,2.34c-31.64,31.02-66.69,45.5-110.26,45.54-6.41.3-12.78.45-19.11.45ZM2544.84,994.47c-108.53,4.04-193.1,58.04-244.59,156.15-86.58,164.98-63.94,427.35,52.66,610.3,41.06,64.43,90.68,114.48,147.49,148.75,62.05,37.44,130.85,54.66,204.47,51.17h.38c38.65,0,68.67-11.96,96.87-38.68l.51-107.22c-6.31,12.41-15.26,22.58-26.77,30.41-16.99,11.56-38.73,17.42-64.6,17.44-49.21,1.24-96.21-10.99-139.6-36.35-39.69-23.2-75.65-56.88-106.88-100.1-57.46-79.53-95.01-186.88-103.02-294.52-6.27-84.19,6.58-162.44,36.19-220.34,33.66-65.82,87.92-105.13,156.91-113.67l.49-.06h.49c50.63,0,101.71,29.02,101.71,93.85,0,7.54-.99,15.12-2.93,22.58l71.21-80.37c-5.02-52.06-35.45-84.24-60.39-102.17-32.79-23.59-76.74-37.13-120.59-37.17Z"/><path class="cls-1" d="M3134.46,1258.75c0,127.13-24.9,267.38-173.66,267.38s-173.66-140.9-173.66-268.03,25.56-269.34,173.66-269.34,173.66,142.21,173.66,270ZM2960.79,1447.49c50.46,0,55.7-127.79,55.7-188.08s-3.93-192.01-55.7-192.01-55.7,133.03-55.7,192.01,5.24,188.08,55.7,188.08Z"/><path class="cls-2" d="M2960.79,1534.13c-69.88,0-120.2-30.56-149.56-90.84-21.6-44.34-32.1-104.92-32.1-185.2s10.5-141.54,32.09-186.08c29.36-60.56,79.68-91.26,149.57-91.26s120.54,30.82,149.82,91.61c16.09,33.4,25.97,76.11,29.89,129.6h1.95v56.8c0,80.4-10.42,140.87-31.85,184.87-29.26,60.06-79.66,90.51-149.81,90.51ZM2960.79,996.75c-33.54,0-62.21,7.67-85.22,22.8-20.58,13.53-37.39,33.53-49.95,59.44-20.52,42.32-30.49,100.9-30.49,179.1s9.97,136.08,30.48,178.19c12.56,25.78,29.36,45.68,49.94,59.15,23.02,15.06,51.69,22.7,85.24,22.7,64.41,0,108.71-26.66,135.42-81.52,20.35-41.77,30.24-99.95,30.24-177.86s-9.9-137.19-30.25-179.45c-26.76-55.55-71.05-82.55-135.41-82.55Z"/><path class="cls-2" d="M2960.79,1455.49h-22.43v-7.75c-14.57-11.25-25.36-34.72-32.2-70.16-7.5-38.87-9.07-85.71-9.07-118.17,0-48.35,2.88-88.58,8.57-119.57,9.79-53.38,28.34-80.45,55.13-80.45s45.34,27.07,55.13,80.45c5.69,30.99,8.57,71.22,8.57,119.57,0,32.45-1.57,79.3-9.07,118.17-9.98,51.7-28.36,77.92-54.63,77.92ZM2960.79,1075.39c-30.32,0-47.7,67.07-47.7,184.01s17.83,180.08,47.7,180.08,47.7-67.32,47.7-180.08-17.39-184.01-47.7-184.01Z"/><path class="cls-1" d="M3327.78,1191.25v275.9c0,32.77,19,45.87,29.49,45.87v6.55h-170.39v-6.55c10.49,0,29.49-13.11,29.49-45.87v-419.41c0-32.77-19-45.87-29.49-45.87v-6.55h141.55l122.55,328.32v-275.9c0-32.77-19-45.87-29.49-45.87v-6.55h170.39v6.55c-10.49,0-29.49,13.11-29.49,45.87v419.41c0,32.77,19,45.87,29.49,45.87v6.55h-141.55l-122.55-328.32Z"/><path class="cls-2" d="M3599.88,1527.57h-155.11l-108.99-292.01v231.59c0,28.55,15.98,37.87,21.49,37.87h8v22.55h-186.39v-22.55h8c5.51,0,21.49-9.32,21.49-37.87v-419.41c0-28.55-15.98-37.87-21.49-37.87h-8v-22.55h155.11l108.99,292.01v-231.58c0-28.55-15.98-37.87-21.49-37.87h-8v-22.55h186.39v22.55h-8c-5.51,0-21.49,9.32-21.49,37.87v419.41c0,28.55,15.98,37.87,21.49,37.87h8v22.55ZM3455.88,1511.57h115.09c-9.17-8.62-16.58-23.27-16.58-44.43v-419.41c0-20.61,6.87-33.3,12.63-40.31,1.21-1.48,2.51-2.85,3.87-4.12h-128.49c9.17,8.63,16.58,23.28,16.58,44.43v320.21l-136.1-364.63h-115.09c9.17,8.63,16.58,23.28,16.58,44.43v419.41c0,20.61-6.87,33.29-12.63,40.3-1.21,1.48-2.51,2.85-3.87,4.12h128.49c-9.17-8.62-16.58-23.27-16.58-44.43v-320.21l136.1,364.63Z"/><path class="cls-1" d="M2975.84,1581.07c-24.8,5.46-47.61,31.74-47.61,53.56,0,27.27,25.29,36.2,43.14,35.21l-11.9,67.94c-54.55,0-81.33-36.2-81.33-74.39,0-42.65,33.23-87.28,97.69-87.28v4.96Z"/><path class="cls-2" d="M2966.19,1745.78h-6.72c-27.56,0-50.67-8.74-66.84-25.28-14.5-14.83-22.49-35.11-22.49-57.11,0-24.19,9.84-47.98,26.99-65.27,13.59-13.69,38.27-30.01,78.7-30.01h8v19.39l-6.28,1.38c-20.86,4.59-41.33,27.25-41.33,45.75,0,7.64,2.47,13.85,7.34,18.46,7.57,7.16,19.1,9.22,27.36,8.76l10.06-.56-14.8,84.49ZM2945.07,1588.23c-38.81,11.16-58.93,43.32-58.93,75.16s20.67,63.38,66.64,66.19l9.11-52.03c-11.37-1.27-21.89-5.8-29.33-12.84-8.08-7.64-12.34-18.04-12.34-30.08,0-16.35,10.22-34.02,24.84-46.4Z"/><path class="cls-1" d="M3139.98,1667.36c-37.69,0-97.69,55.05-77.36,95.21l-3.97,2.48-50.58-85.3c21.82-53.06,70.92-93.73,133.9-93.73s112.57,45.13,112.57,108.6-93.23,178.03-123.48,216.22h79.84c24.8,0,34.71-14.38,34.71-22.32h4.96v99.18h-227.62v-65.46c23.31-31.24,147.29-183.49,147.29-232.09,0-14.38-17.36-22.81-30.25-22.81Z"/><path class="cls-2" d="M3258.57,1995.72h-243.62v-76.12l1.59-2.13c3.2-4.29,8.2-10.73,14.53-18.9,19.87-25.62,53.13-68.51,81.18-109.9,41.32-60.97,49.99-87.22,49.99-98.51,0-6.04-8.67-14.81-22.25-14.81-20.67,0-50.4,19.97-64.93,43.6-6.39,10.4-12.5,25.78-5.3,40l3.3,6.52-17.11,10.69-56.8-95.77,1.52-3.69c11.71-28.47,30.44-52.74,54.18-70.17,25.4-18.66,55.53-28.52,87.12-28.52s63.43,11.61,85.6,32.7c22.55,21.44,34.97,51.24,34.97,83.9,0,59.83-75.72,158.64-114.93,208.22h63.29c20.14,0,26.71-10.65,26.71-14.32v-8h20.96v115.18ZM3030.95,1979.72h211.62v-70.93c-7.04,5.79-17.52,10.06-31.67,10.06h-96.39l13.8-17.42c32.33-40.72,118.22-148.89,118.22-206.8,0-28.24-10.65-53.92-30-72.31-19.19-18.25-45.67-28.3-74.58-28.3s-55.01,8.79-77.65,25.41c-20.35,14.95-36.65,35.54-47.3,59.72l34.21,57.68c1.36-8.56,4.77-17.42,10.2-26.26,17.65-28.72,52.16-51.22,78.56-51.22h5.73v.42c15.12,2.16,32.52,12.6,32.52,30.39,0,39.44-68,132.44-134.53,218.21-5.3,6.83-9.66,12.45-12.76,16.55v54.79Z"/><path class="cls-1" d="M3432.08,1729.84c67.44,0,114.06,40.66,114.06,115.05s-48.1,145.8-130.92,145.8-121-66.45-121-145.8c0-97.69,74.39-259.36,189.44-259.36,8.43,0,17.36.99,26.28,2.98l-17.85,68.93c-2.98-.5-5.95-.99-8.43-.99-34.22,0-60.5,49.59-71.91,75.38,4.96-1.49,14.88-1.98,20.33-1.98ZM3418.69,1807.7c-24.8,0-40.17,26.28-40.17,52.07,0,33.23,18.84,49.1,38.68,49.1,21.82,0,45.62-19.84,45.62-56.53,0-26.28-17.36-44.63-44.14-44.63Z"/><path class="cls-2" d="M3418.25,1998.72c-1.07,0-2.14-.01-3.21-.04h-.11c-44.4-1.62-78.31-18.11-100.78-49.01-19.44-26.74-29.15-63.64-28.09-106.73,1.46-59.43,23.34-125.7,58.52-177.26,38.83-56.91,87.65-88.16,137.63-88.16.5,0,1,0,1.5,0,9.12,0,18.53,1.07,27.97,3.17l8.08,1.8-21.77,84.04-7.22-1.21c-2.6-.43-5.3-.88-7.12-.88-12.35,0-25.2,8.4-38.22,24.96-8.07,10.28-14.92,22.12-20.21,32.62,3.36-.17,6-.19,6.77-.19,46.49-.94,83.58,18.18,104.52,53.89,12.8,21.83,18.96,48.55,17.83,77.27-1.09,27.68-9.24,55.77-22.94,79.08-11.92,20.29-28.03,37.01-46.59,48.35-19.86,12.14-42.24,18.29-66.55,18.29ZM3415.45,1982.69c58.1,1.25,88.95-36.24,102.15-58.72,25.72-43.78,27.83-101.41,5.11-140.16-12.65-21.58-38.62-47.09-90.46-45.98h-.17c-6.17,0-14.6.62-18.04,1.65l-16.64,4.99,7.03-15.89c13.24-29.93,41.14-80.14,79.22-80.14.81,0,1.64.04,2.47.1l13.92-53.75c-5.54-.84-11.03-1.26-16.38-1.26h-.12c-.44,0-.89,0-1.33,0-96.52,0-177.37,136.16-180.17,249.82-.97,39.54,7.68,73.06,25.04,96.93,19.42,26.71,49.15,40.99,88.36,42.43Z"/><path class="cls-2" d="M3416.97,1916.86c-22.84,0-45.96-17.56-46.45-56.99,0-14.74,4.47-29.44,12.26-40.43,9.02-12.73,21.78-19.74,35.91-19.74,15.25,0,28.34,5.14,37.83,14.87,9.36,9.58,14.3,22.64,14.3,37.76.16,23.69-8.82,38.69-16.37,47.09-9.85,10.95-23.36,17.31-37.05,17.44-.14,0-.28,0-.42,0ZM3418.69,1815.7c-19.87,0-32.17,22.88-32.17,44.07.24,18.94,8.35,41.09,30.41,41.09.11,0,.21,0,.31,0,18.37-.17,37.79-17.22,37.58-48.47,0-10.91-3.37-20.1-9.75-26.64-6.42-6.57-15.54-10.05-26.39-10.05Z"/><path class="cls-5" d="M1993.04,1435.4c33.93-39.49,200.31,28.33,197.88-102.52h-.02c-2.33-127.23-308.59-197.02-322.56-212.03-4.35-4.67.8-77.98-36.06-134.46-1.23-1.88-2.5-3.74-3.86-5.48-11.2-12.36-23.2-23.36-35.67-34.46-1.99-1.41-4.15-2.75-6.38-4.04-20.01-11.6-45.19-19.38-76.93-21.03-175.78-9.39-153.53,182.13-160.84,189.4-14.74,14.68-368.39,71.8-368.49,213.76-.12,146.07,197.75,70.72,237.34,112.85,34.63,36.88-179.91,287.56-210.76,453.7-10.31,55.52,4.99,65.39,59.05,62.31,32.17-1.83,63.66-3.64,94.38-5.39,7.68-.44,13.12-3.12,20.97-4.81,16.13-4.65,32.13-1.65,47.88-.39,6.57.67,13.6.48,20.86.07,29.07-1.67,57.27-3.28,84.51-4.83,36.45-2.08,49.43-24.17,68.09-54.41,40.68-65.92,88.5-168.45,114.43-169.32,25.77-.88,74.42,96.78,114.62,157.5,18.21,27.52,30.79,47.53,64.74,45.6,74.23-4.23,153.48-8.7,235-13.34,44.3-2.53,56.51-12.86,47.3-61.78-27.77-147.63-215.59-371.77-185.48-406.88Z"/><path class="cls-2" d="M1250.09,1961.91c-20.42,0-35.95-3.14-45.24-13.7-9.77-11.1-11.57-28.62-6.01-58.57,16.47-88.68,84.35-200.94,138.9-291.15,25.18-41.65,46.93-77.61,60.85-106.16,18.86-38.68,14.75-47.63,13.04-49.46-11.45-12.18-43.82-12.61-78.09-13.06-35.01-.46-74.69-.99-105.81-13.87-17.43-7.22-30.92-17.89-40.09-31.73-10.31-15.55-15.53-35.63-15.51-59.67.08-117.51,219.32-177.06,324.69-205.67,19.11-5.19,38.8-10.54,45.07-13.32.36-2.7.68-7.63.97-12.09,1.61-24.77,4.61-70.88,26.37-110.56,27.22-49.64,74.53-73.02,140.66-69.49,30.9,1.6,58,9.04,80.52,22.09,2.71,1.57,5,3.02,6.99,4.43l.7.55c11.27,10.03,24.29,21.83,36.28,35.06l.38.45c1.33,1.71,2.68,3.62,4.25,6.03,28.39,43.49,32.83,96.6,34.96,122.12.37,4.37.77,9.21,1.16,11.73,5.54,3.02,23.83,9.33,41.56,15.45,45.34,15.65,113.86,39.29,172.35,71.92,32.59,18.18,58.23,37.15,76.2,56.38,19.29,20.65,30.38,42.21,33.06,64.21l.46-.06.18,8.96c.4,21.49-3.62,39.47-11.94,53.46-7.48,12.58-18.67,22.33-33.25,28.97-25.88,11.78-59.13,12.47-88.47,13.07-29.06.6-56.52,1.17-66.15,12.37h0c-1.49,1.73-5.02,10.15,11.92,45.65,12.51,26.22,32.87,60.6,54.42,97,47.33,79.94,106.24,179.42,120.93,257.54,5.12,27.19,3.7,43.41-4.76,54.23-9.63,12.31-26.93,15.71-49.94,17.02-41.64,2.37-82.7,4.7-122.79,6.97-38.39,2.17-75.9,4.3-112.2,6.37-37.92,2.16-53.19-20.93-70.87-47.67l-.99-1.5c-11.13-16.81-23.04-36.66-34.55-55.85-15.05-25.09-30.62-51.03-44.29-69.9-19.13-26.4-26.86-28.22-28.83-28.17-1.98.07-9.93,2.48-29.02,30.83-13.56,20.13-29.03,47.7-43.99,74.37-11.58,20.64-23.56,41.99-34.87,60.33l-1.01,1.64c-18.71,30.33-33.48,54.28-73.44,56.56-27.24,1.55-55.44,3.17-84.5,4.83-6.7.38-14.56.67-22.05-.08-2.94-.24-5.91-.53-8.78-.82-12.59-1.25-24.48-2.44-36.16.93l-.53.13c-2.61.56-5.04,1.28-7.38,1.97-4.45,1.32-9.06,2.68-14.82,3.01-30.71,1.76-62.2,3.56-94.38,5.39-5.66.32-11.04.52-16.12.52ZM1697.3,929.07c-27.44,0-51.03,5.44-70.25,16.21-18.17,10.19-32.91,25.43-43.81,45.31-20.05,36.57-22.9,80.37-24.43,103.9-.91,13.95-1.21,18.65-4.56,21.97-4.46,4.44-16.34,7.82-53.25,17.84-51.53,14-129.41,35.15-195.83,66.97-77.64,37.2-117.02,78.67-117.05,123.27-.03,39.33,14.5,63.68,45.73,76.61,28.28,11.71,66.33,12.21,99.9,12.66,39.41.52,73.44.97,89.54,18.11,19.68,20.96-11.11,74.37-71.87,174.85-53.88,89.09-120.92,199.98-136.86,285.79-4.45,23.94-3.72,38.26,2.28,45.08,6.2,7.04,20.69,9.37,48.44,7.78,32.17-1.83,63.66-3.63,94.37-5.39,3.91-.22,7.29-1.22,11.2-2.38,2.44-.72,5.19-1.53,8.28-2.21,14.54-4.12,28.46-2.74,41.91-1.4,2.82.28,5.73.57,8.55.79l.18.02c6.4.66,13.49.39,19.59.04,29.07-1.67,57.27-3.28,84.51-4.83,31.63-1.8,43.2-20.57,60.73-48.98l1.01-1.64c11.14-18.05,23.03-39.25,34.53-59.75,39.16-69.8,64.28-112.62,86.43-113.36.21,0,.41-.01.62-.01,22.12,0,47.46,40.34,86.76,105.84,11.43,19.04,23.24,38.73,34.18,55.25l1,1.5c17.39,26.29,27.87,42.15,56.62,40.52,36.31-2.07,73.82-4.2,112.21-6.37,40.09-2.27,81.15-4.6,122.79-6.97,22.09-1.26,33.17-4.42,38.25-10.91,5.26-6.73,5.77-19.5,1.64-41.41-14.17-75.36-72.28-173.5-118.98-252.35-54.48-92-82.09-140.95-64.71-161.22h0c14.29-16.64,43.79-17.25,77.96-17.95,27.79-.57,59.3-1.22,82.17-11.64,24.62-11.21,36.04-32.1,35.84-65.67l-.04-1.9c-.72-39.63-34.93-78.6-101.68-115.82-57.26-31.94-124.97-55.3-169.78-70.77-33.07-11.41-44.73-15.59-48.96-20.14-3.01-3.23-3.38-7.67-4.48-20.82-2.02-24.22-6.24-74.6-32.41-114.71-1.24-1.91-2.3-3.41-3.29-4.7-11.28-12.42-23.7-23.7-34.51-33.32-1.52-1.05-3.29-2.17-5.42-3.4-20.3-11.77-44.98-18.49-73.34-19.96-3.98-.21-7.9-.32-11.74-.32ZM1543.4,1104.75h0Z"/><polygon class="cls-2" points="738.41 1220.58 641.9 1220.58 641.9 1204.58 721.72 1204.58 738.41 1220.58"/><polygon class="cls-2" points="718.66 1257.32 622.15 1257.32 622.15 1241.32 701.97 1241.32 718.66 1257.32"/><polygon class="cls-2" points="703.58 1294.56 607.08 1294.56 607.08 1278.56 686.89 1278.56 703.58 1294.56"/><polygon class="cls-2" points="422.48 1590.78 280.99 1590.78 280.99 1574.78 405.79 1574.78 422.48 1590.78"/><polygon class="cls-2" points="464.85 1627.53 323.35 1627.53 323.35 1611.53 448.16 1611.53 464.85 1627.53"/><polygon class="cls-2" points="521.7 1664.76 380.2 1664.76 380.2 1648.76 505 1648.76 521.7 1664.76"/><polygon class="cls-2" points="1898.35 308.32 1813.45 308.32 1813.45 292.32 1881.66 292.32 1898.35 308.32"/><polygon class="cls-2" points="1880.19 345.06 1809.41 345.06 1809.41 329.06 1863.5 329.06 1880.19 345.06"/><polygon class="cls-2" points="1864.25 382.3 1801.85 382.3 1801.85 366.3 1847.56 366.3 1864.25 382.3"/><polygon class="cls-2" points="2063.99 745.06 1979.1 745.06 1979.1 729.06 2047.3 729.06 2063.99 745.06"/><polygon class="cls-2" points="2045.84 781.81 1982.83 781.81 1982.83 765.81 2029.14 765.81 2045.84 781.81"/><polygon class="cls-2" points="2029.89 819.04 1982.83 819.04 1982.83 803.04 2013.2 803.04 2029.89 819.04"/><polygon class="cls-2" points="3292.01 745.06 3207.11 745.06 3207.11 729.06 3275.32 729.06 3292.01 745.06"/><polygon class="cls-2" points="3273.85 781.81 3210.84 781.81 3210.84 765.81 3257.16 765.81 3273.85 781.81"/><polygon class="cls-2" points="3257.91 819.04 3210.84 819.04 3210.84 803.04 3241.21 803.04 3257.91 819.04"/><polygon class="cls-2" points="2340.9 308.32 2256 308.32 2256 292.32 2324.21 292.32 2340.9 308.32"/><polygon class="cls-2" points="2322.74 345.06 2251.96 345.06 2251.96 329.06 2306.05 329.06 2322.74 345.06"/><polygon class="cls-2" points="2306.8 382.3 2244.39 382.3 2244.39 366.3 2290.11 366.3 2306.8 382.3"/><polygon class="cls-2" points="1547.95 308.07 1451.45 308.07 1451.45 292.07 1531.26 292.07 1547.95 308.07"/><polygon class="cls-2" points="1529.79 344.82 1459.01 344.82 1459.01 328.82 1513.1 328.82 1529.79 344.82"/><polygon class="cls-2" points="1513.85 382.05 1451.45 382.05 1451.45 366.05 1497.16 366.05 1513.85 382.05"/><polygon class="cls-2" points="1299.49 308.07 1202.98 308.07 1202.98 292.07 1282.8 292.07 1299.49 308.07"/><polygon class="cls-2" points="1281.33 344.82 1210.55 344.82 1210.55 328.82 1264.64 328.82 1281.33 344.82"/><polygon class="cls-2" points="1265.39 382.05 1202.98 382.05 1202.98 366.05 1248.69 366.05 1265.39 382.05"/><polygon class="cls-2" points="1655.9 1014.41 1566.56 1013.93 1566.56 997.93 1639.21 998.41 1655.9 1014.41"/><polygon class="cls-2" points="1637.74 1051.16 1559.39 1051.16 1559.39 1035.16 1621.05 1035.16 1637.74 1051.16"/><polygon class="cls-2" points="1621.8 1088.39 1559.39 1088.39 1559.39 1072.39 1605.1 1072.39 1621.8 1088.39"/><polygon class="cls-2" points="1453.2 1585.44 1363.87 1584.96 1363.87 1568.96 1436.51 1569.44 1453.2 1585.44"/><polygon class="cls-2" points="1435.05 1622.19 1336.08 1622.19 1336.08 1606.19 1418.35 1606.19 1435.05 1622.19"/><polygon class="cls-2" points="1419.1 1659.42 1318.64 1659.42 1318.64 1643.42 1402.41 1643.42 1419.1 1659.42"/><polygon class="cls-2" points="2606.37 308.32 2521.47 308.32 2521.47 292.32 2589.67 292.32 2606.37 308.32"/><polygon class="cls-2" points="2588.21 345.06 2517.42 345.06 2517.42 329.06 2571.52 329.06 2588.21 345.06"/><polygon class="cls-2" points="2572.26 382.3 2509.86 382.3 2509.86 366.3 2555.57 366.3 2572.26 382.3"/><polygon class="cls-2" points="3127.27 308.32 3042.37 308.32 3042.37 292.32 3110.58 292.32 3127.27 308.32"/><polygon class="cls-2" points="3109.11 345.06 3038.33 345.06 3038.33 329.06 3092.42 329.06 3109.11 345.06"/><polygon class="cls-2" points="3093.17 382.3 3030.76 382.3 3030.76 366.3 3076.47 366.3 3093.17 382.3"/><polygon class="cls-2" points="2448.84 1059.4 2363.94 1059.4 2363.94 1043.4 2432.15 1043.4 2448.84 1059.4"/><polygon class="cls-2" points="2430.68 1096.15 2330.33 1096.15 2330.33 1080.15 2413.99 1080.15 2430.68 1096.15"/><polygon class="cls-2" points="2414.74 1133.38 2305.66 1133.38 2305.66 1117.38 2398.05 1117.38 2414.74 1133.38"/><polygon class="cls-2" points="2891.92 1112.38 2807.02 1112.38 2807.02 1096.38 2875.23 1096.38 2891.92 1112.38"/><polygon class="cls-2" points="2873.76 1149.13 2802.98 1149.13 2802.98 1133.13 2857.07 1133.13 2873.76 1149.13"/><polygon class="cls-2" points="2857.82 1186.36 2795.41 1186.36 2795.41 1170.36 2841.12 1170.36 2857.82 1186.36"/><polygon class="cls-2" points="3121.4 1619.96 3060.34 1619.96 3060.34 1603.96 3104.7 1603.96 3121.4 1619.96"/><polygon class="cls-2" points="3077.66 1656.71 3026.49 1656.71 3026.49 1640.71 3060.96 1640.71 3077.66 1656.71"/><polygon class="cls-2" points="3067.11 1693.94 3009.89 1693.94 3009.89 1677.94 3050.42 1677.94 3067.11 1693.94"/><polygon class="cls-2" points="3425.53 1648.95 3374.74 1648.95 3374.74 1632.95 3408.84 1632.95 3425.53 1648.95"/><polygon class="cls-2" points="3407.37 1685.7 3347.21 1685.7 3347.21 1669.7 3390.68 1669.7 3407.37 1685.7"/><polygon class="cls-2" points="3391.43 1722.93 3328.69 1722.93 3328.69 1706.93 3374.74 1706.93 3391.43 1722.93"/><polygon class="cls-2" points="3305.39 1104.14 3220.49 1104.14 3220.49 1088.14 3288.7 1088.14 3305.39 1104.14"/><polygon class="cls-2" points="3287.23 1140.89 3216.45 1140.89 3216.45 1124.89 3270.54 1124.89 3287.23 1140.89"/><polygon class="cls-2" points="3271.29 1178.12 3208.88 1178.12 3208.88 1162.12 3254.59 1162.12 3271.29 1178.12"/><polygon class="cls-2" points="3512.67 1410.73 3411.38 1410.73 3411.38 1394.73 3495.98 1394.73 3512.67 1410.73"/><polygon class="cls-2" points="3494.51 1447.48 3425.54 1447.48 3425.54 1431.48 3477.82 1431.48 3494.51 1447.48"/><polygon class="cls-2" points="3478.57 1484.71 3431.5 1484.71 3431.5 1468.71 3461.87 1468.71 3478.57 1484.71"/></svg>